<?xml version="1.0" standalone="no"?>
<!DOCTYPE svg PUBLIC "-//W3C//DTD SVG 20010904//EN"
 "http://www.w3.org/TR/2001/REC-SVG-20010904/DTD/svg10.dtd">
<svg version="1.0" xmlns="http://www.w3.org/2000/svg"
 width="1491.000000pt" height="831.000000pt" viewBox="0 0 1491.000000 831.000000"
 preserveAspectRatio="xMidYMid meet">
<metadata>
Created by potrace 1.16, written by Peter Selinger 2001-2019
</metadata>
<g transform="translate(0.000000,831.000000) scale(0.100000,-0.100000)"
fill="#000000" stroke="none">
<path d="M4857 8268 c2 -5 0 -8 -6 -8 -5 0 -22 -5 -38 -12 -15 -6 -32 -10 -36
-10 -4 1 -18 -7 -30 -19 -13 -12 -31 -19 -44 -16 -12 2 -20 0 -17 -4 3 -5 1
-9 -3 -9 -5 0 -30 -18 -57 -40 -27 -23 -55 -39 -61 -36 -9 3 -11 -2 -7 -16 4
-18 2 -20 -16 -16 -12 4 -20 2 -16 -3 8 -14 -29 -70 -43 -65 -7 3 -10 -1 -7
-9 7 -17 -14 -57 -26 -50 -6 4 -7 -1 -3 -11 3 -10 2 -15 -3 -12 -5 3 -9 -10
-10 -29 0 -19 -6 -38 -14 -43 -7 -4 -10 -12 -6 -18 3 -6 2 -13 -4 -17 -5 -3
-10 -17 -10 -31 0 -14 -3 -23 -7 -21 -5 3 -9 -42 -11 -99 -2 -68 0 -104 7
-104 6 0 8 -7 5 -15 -4 -8 -1 -15 4 -15 6 0 16 -25 23 -56 7 -31 19 -62 26
-69 7 -8 13 -18 13 -24 0 -6 4 -11 10 -11 5 0 7 -7 4 -15 -4 -8 -2 -15 4 -15
5 0 15 -21 21 -47 7 -27 17 -67 23 -90 6 -23 17 -44 25 -47 8 -3 12 -10 9 -15
-4 -5 -1 -11 5 -13 22 -7 38 -103 39 -231 0 -74 -4 -126 -9 -123 -5 4 -7 -2
-5 -11 5 -20 -59 -126 -70 -116 -4 4 -4 -1 0 -11 5 -13 4 -17 -3 -13 -7 5 -9
0 -6 -12 3 -11 -3 -27 -15 -39 -11 -11 -17 -24 -14 -28 4 -4 -1 -4 -11 -1 -11
4 -16 3 -12 -4 10 -15 -15 -70 -28 -62 -5 3 -7 2 -4 -4 7 -12 -14 -63 -26 -63
-5 0 -5 -5 -1 -12 5 -7 2 -9 -9 -5 -12 4 -14 2 -10 -10 4 -11 2 -14 -5 -9 -8
5 -10 2 -6 -8 3 -9 -8 -38 -24 -65 -17 -27 -28 -52 -25 -55 6 -5 -12 -10 -29
-7 -4 0 -4 -7 -1 -16 5 -12 3 -14 -7 -8 -9 5 -11 4 -6 -4 9 -14 -25 -91 -48
-110 -9 -8 -16 -20 -16 -28 0 -8 -4 -11 -10 -8 -6 4 -7 -1 -3 -11 4 -12 3 -15
-5 -10 -8 4 -10 2 -6 -8 6 -17 -22 -76 -37 -76 -6 0 -7 5 -3 12 4 7 3 8 -4 4
-6 -4 -9 -13 -6 -20 5 -14 -21 -76 -32 -76 -3 0 -2 5 2 12 4 6 3 8 -3 5 -6 -4
-8 -18 -6 -32 4 -17 0 -27 -11 -31 -9 -3 -13 -11 -9 -17 4 -6 0 -8 -10 -4 -11
4 -14 2 -10 -8 3 -9 -2 -18 -12 -21 -13 -5 -14 -9 -3 -15 9 -6 9 -9 1 -9 -7 0
-17 -10 -24 -21 -9 -17 -8 -20 3 -14 7 3 6 1 -3 -7 -9 -7 -19 -23 -23 -35 -4
-11 -13 -24 -21 -27 -8 -3 -15 -15 -15 -26 0 -12 -4 -18 -10 -15 -6 4 -9 3 -8
-2 4 -12 -36 -103 -45 -103 -5 0 -5 -4 -2 -10 3 -5 1 -10 -4 -10 -6 0 -25 -28
-41 -62 -46 -93 -96 -179 -109 -188 -7 -4 -12 -10 -11 -14 2 -11 -102 -204
-121 -225 -10 -10 -16 -21 -13 -24 9 -8 -19 -57 -32 -57 -7 0 -11 -6 -8 -14 3
-8 0 -17 -7 -22 -8 -5 -10 -3 -4 6 5 8 4 11 -3 6 -6 -4 -9 -13 -6 -20 3 -7 -1
-20 -8 -27 -7 -8 -15 -23 -17 -34 -5 -32 -21 -55 -37 -55 -8 0 -12 -4 -9 -10
3 -5 2 -10 -4 -10 -6 0 -7 -7 -4 -17 5 -12 3 -14 -7 -8 -9 5 -11 4 -6 -3 5 -9
-14 -62 -29 -80 -1 -1 -26 8 -56 21 -162 72 -373 134 -566 168 -173 31 -545
34 -758 5 -505 -67 -989 -319 -1363 -711 -343 -360 -546 -759 -633 -1252 -20
-111 -23 -162 -24 -383 0 -194 4 -284 18 -375 29 -199 36 -231 89 -391 226
-694 780 -1260 1474 -1503 118 -42 294 -90 429 -118 99 -20 456 -28 596 -14
610 63 1210 376 1591 830 261 311 426 654 522 1086 2 6 8 28 14 50 40 146 41
581 3 800 -104 586 -393 1089 -841 1463 -63 52 -119 98 -123 102 -8 7 51 134
87 185 12 17 31 51 43 78 12 26 28 46 35 45 8 -2 12 5 10 16 -2 10 1 15 7 11
6 -3 9 0 5 8 -3 8 1 21 9 28 7 8 12 19 10 25 -2 6 9 25 25 41 15 17 26 36 24
43 -3 8 0 10 8 5 8 -5 11 -4 7 3 -8 12 42 112 60 119 7 3 10 9 7 14 -3 5 -1 9
4 9 6 0 9 6 9 13 -2 18 45 109 69 132 11 12 18 27 16 34 -3 9 0 11 8 6 9 -5
11 -4 6 3 -9 15 21 73 36 69 6 -1 12 9 13 22 1 14 7 27 14 29 6 2 9 8 5 13 -3
5 -1 9 5 9 6 0 8 6 5 14 -3 8 4 24 15 35 12 12 21 23 21 26 0 7 3 7 20 1 8 -2
20 -6 26 -8 10 -3 301 -316 579 -623 55 -60 174 -191 265 -290 316 -344 342
-374 334 -386 -4 -7 -3 -9 3 -6 13 8 30 -6 97 -82 31 -35 53 -68 49 -74 -3 -5
-2 -7 4 -4 6 4 30 -17 54 -46 56 -66 145 -165 218 -242 32 -33 125 -134 207
-225 82 -91 203 -223 269 -295 66 -71 165 -179 219 -240 54 -60 105 -115 113
-121 11 -10 11 -13 -1 -23 -8 -7 -24 -37 -36 -69 -13 -31 -29 -70 -36 -87 -23
-54 -34 -134 -34 -241 0 -104 22 -247 42 -271 6 -7 7 -13 2 -13 -5 0 -4 -4 1
-8 6 -4 23 -34 38 -66 79 -166 242 -307 427 -372 131 -45 182 -56 233 -49 32
5 47 3 47 -4 0 -16 251 -7 655 24 182 14 349 25 372 25 24 0 48 6 57 15 9 10
34 15 70 15 31 0 56 3 56 8 0 4 25 5 56 3 31 -1 66 2 78 7 25 12 378 37 401
28 9 -3 14 -2 11 3 -7 11 248 26 265 16 7 -5 10 -4 6 2 -3 5 43 10 120 10 69
1 129 6 132 11 3 5 89 14 191 21 102 6 196 14 210 17 24 4 27 -1 69 -118 174
-483 509 -908 941 -1193 335 -221 675 -345 1058 -386 162 -17 483 -7 637 20
354 63 659 180 922 354 279 186 494 400 678 677 167 251 253 452 361 844 49
178 57 633 15 871 -106 596 -402 1103 -866 1481 -112 91 -378 259 -466 293
-13 5 -68 30 -121 55 -162 77 -416 142 -657 167 -163 17 -473 7 -630 -21 -169
-30 -352 -81 -501 -141 -120 -48 -158 -54 -146 -24 3 8 0 17 -6 21 -7 4 -8 3
-4 -4 4 -7 5 -12 3 -12 -10 0 -57 81 -52 90 3 5 -2 13 -11 18 -10 5 -18 20
-19 33 -1 13 -7 24 -13 24 -15 0 -54 63 -47 75 3 5 0 12 -6 16 -8 5 -9 3 -4
-6 5 -9 4 -11 -4 -6 -7 4 -10 13 -8 19 2 7 -7 21 -20 33 -13 11 -25 30 -26 42
0 12 -7 24 -15 27 -8 3 -12 12 -8 20 3 8 0 17 -6 21 -7 5 -8 2 -3 -6 6 -9 4
-11 -4 -6 -7 5 -10 14 -7 22 3 8 0 14 -7 14 -16 0 -50 57 -42 70 3 6 2 10 -4
10 -14 0 -92 123 -86 138 2 6 -3 12 -11 12 -10 0 -14 6 -10 15 3 9 0 15 -9 15
-15 0 -68 97 -60 110 3 5 0 12 -6 16 -8 5 -9 3 -4 -6 6 -9 4 -11 -4 -6 -7 5
-10 14 -7 22 3 8 -1 14 -9 14 -18 0 -38 37 -29 52 4 7 3 8 -4 4 -7 -4 -12 -2
-12 3 0 19 -3 25 -22 45 -10 11 -18 23 -18 28 0 4 -9 17 -21 29 -11 11 -18 27
-15 34 3 8 0 17 -6 21 -7 5 -8 2 -3 -6 6 -9 4 -11 -4 -6 -7 5 -10 14 -8 20 3
7 -6 21 -19 31 -13 9 -22 21 -19 25 3 4 -2 13 -10 20 -8 7 -12 16 -9 21 3 5 0
9 -6 9 -6 0 -9 4 -6 9 3 5 -1 12 -10 15 -8 3 -12 11 -9 16 4 6 -3 19 -14 29
-12 10 -21 23 -21 30 0 6 -4 11 -10 11 -5 0 -10 9 -10 20 0 11 -9 28 -19 37
-11 9 -18 20 -15 25 3 4 0 8 -6 8 -6 0 -16 14 -21 30 -6 17 -15 30 -19 30 -4
0 -11 12 -15 27 -3 15 -14 32 -22 38 -11 9 -14 18 -8 31 5 10 9 22 10 27 2 4
4 10 5 15 1 4 2 10 1 15 0 4 3 7 8 7 6 0 20 27 32 60 13 35 26 57 32 53 6 -4
8 0 4 10 -3 9 -2 19 4 22 5 4 7 11 4 16 -4 5 -2 9 3 9 5 0 15 15 22 33 28 76
45 112 55 119 5 4 6 8 2 8 -4 0 -2 6 5 14 7 8 16 12 20 10 3 -2 4 5 1 15 -3
10 0 28 6 38 9 19 27 20 288 26 153 4 295 10 316 13 27 5 51 20 81 50 24 24
45 41 47 40 11 -11 10 525 -1 584 -7 36 -13 73 -13 83 -1 9 -7 17 -14 17 -7 0
-13 3 -13 8 0 16 -46 63 -66 66 -11 2 -41 14 -65 25 -42 20 -53 21 -134 12
-66 -8 -98 -17 -126 -36 -21 -14 -45 -25 -54 -25 -8 0 -15 -4 -15 -8 0 -5 -53
-23 -117 -42 -65 -19 -120 -37 -123 -40 -9 -12 -222 -72 -236 -66 -9 3 -11 0
-7 -11 5 -12 3 -14 -6 -8 -7 4 -16 3 -20 -2 -9 -14 -199 -65 -213 -57 -7 4
-10 4 -6 -1 16 -17 -141 -73 -163 -59 -7 4 -9 3 -6 -3 8 -12 -50 -26 -66 -16
-6 3 -7 1 -3 -5 4 -7 1 -12 -8 -12 -9 0 -16 -4 -16 -8 0 -4 -24 -16 -52 -26
-29 -10 -69 -27 -88 -38 -19 -11 -52 -23 -73 -26 -32 -6 -43 -14 -61 -47 -11
-22 -24 -41 -28 -43 -15 -7 -8 -146 7 -166 8 -11 15 -28 15 -38 0 -10 5 -18
11 -18 5 0 8 -4 4 -9 -3 -5 5 -13 17 -16 13 -4 30 -16 38 -27 23 -28 105 -39
327 -45 l192 -5 -17 -36 c-9 -20 -20 -39 -25 -40 -4 -2 -5 -8 -1 -13 3 -5 0
-9 -5 -9 -6 0 -11 -7 -11 -16 0 -8 -4 -12 -10 -9 -5 3 -7 0 -4 -9 3 -8 -4 -32
-15 -55 -12 -22 -21 -47 -21 -56 0 -8 -5 -15 -11 -15 -5 0 -7 -5 -3 -12 5 -8
2 -9 -10 -5 -11 4 -15 3 -11 -4 10 -15 -15 -70 -28 -62 -5 3 -7 2 -4 -4 9 -14
-12 -83 -24 -83 -6 0 -7 -5 -3 -12 5 -7 2 -9 -8 -5 -11 4 -14 1 -11 -11 2 -9
-2 -25 -9 -34 -12 -15 -170 -16 -2438 -3 -1334 8 -2518 14 -2632 15 l-206 0 6
23 c3 12 18 44 34 70 15 26 28 52 28 57 0 6 4 10 9 10 5 0 19 25 31 55 12 31
28 59 34 63 6 4 22 32 36 62 13 30 30 60 37 66 7 6 9 15 5 19 -4 5 0 6 8 3 11
-4 16 0 16 13 0 11 -3 19 -7 19 -3 0 0 24 8 53 16 59 16 357 0 357 -5 0 -7 18
-5 39 2 22 0 37 -4 35 -5 -3 -8 2 -8 11 0 9 -9 26 -20 37 -11 12 -19 26 -17
31 1 5 -12 25 -30 45 -18 20 -30 38 -27 41 3 3 10 -1 15 -9 9 -12 10 -12 5 3
-3 10 -6 21 -6 23 0 3 -5 2 -11 -1 -16 -10 -40 27 -34 53 4 16 2 21 -6 17 -8
-5 -9 -1 -4 15 4 14 3 20 -3 16 -12 -7 -24 36 -16 58 4 11 2 15 -8 11 -9 -4
-14 2 -14 15 0 13 5 19 13 16 10 -4 12 1 7 19 -7 30 4 67 18 59 6 -4 8 1 3 16
-5 16 -4 20 4 15 8 -5 10 1 5 19 -4 17 -2 26 6 26 6 0 8 5 5 10 -3 6 -1 10 6
10 7 0 9 3 6 6 -10 11 83 76 99 70 8 -3 12 -2 9 3 -6 11 50 20 136 24 43 1 55
5 51 16 -4 11 27 12 184 7 279 -9 558 -11 932 -8 l332 2 0 199 0 198 -904 9
c-497 5 -902 6 -899 2z m2798 -2453 c1702 -7 2165 -13 2142 -30 -9 -6 -15 -14
-12 -17 3 -2 -9 -18 -27 -34 -17 -16 -28 -22 -24 -14 4 8 1 6 -8 -4 -8 -10
-13 -22 -10 -27 2 -4 -14 -23 -37 -41 -23 -18 -50 -50 -60 -70 -11 -21 -22
-38 -25 -38 -3 0 -2 5 2 12 4 7 3 8 -4 4 -6 -4 -21 -24 -33 -46 -13 -22 -28
-40 -35 -40 -7 0 -22 -16 -34 -36 -12 -19 -33 -42 -46 -51 -13 -8 -24 -21 -24
-27 0 -7 -11 -23 -25 -36 -14 -13 -25 -29 -25 -36 0 -6 -16 -24 -35 -38 -19
-15 -35 -33 -35 -41 0 -7 -13 -25 -30 -38 -16 -14 -30 -30 -30 -35 0 -6 -13
-22 -30 -35 -16 -14 -30 -29 -30 -34 0 -4 -24 -33 -53 -64 -28 -30 -45 -46
-37 -35 15 21 15 21 -7 2 -13 -10 -20 -22 -18 -26 7 -11 -35 -61 -45 -55 -10
6 -32 -20 -23 -28 9 -10 -37 -57 -56 -57 -14 0 -14 -2 -1 -10 13 -9 10 -14
-13 -32 -16 -11 -33 -31 -38 -44 -4 -13 -21 -32 -36 -42 -16 -9 -29 -24 -31
-32 -5 -22 -44 -61 -56 -57 -12 4 -35 -21 -36 -37 0 -6 7 -1 15 10 8 10 15 15
15 10 0 -12 -162 -198 -168 -192 -3 3 1 14 9 23 13 16 12 17 -4 4 -10 -8 -15
-21 -12 -30 3 -11 -8 -30 -31 -52 -23 -21 -35 -27 -31 -16 4 11 3 16 -4 12 -6
-4 -8 -14 -5 -22 7 -18 -12 -45 -25 -37 -5 3 -9 2 -8 -3 6 -24 -39 -78 -65
-78 -5 0 -10 -11 -11 -24 -2 -26 -41 -65 -56 -55 -5 3 -6 -1 -3 -9 3 -8 0 -18
-7 -23 -8 -5 -10 -3 -4 6 5 8 4 11 -3 6 -6 -4 -9 -13 -6 -20 3 -8 -3 -20 -14
-27 -11 -8 -20 -18 -20 -24 0 -5 -6 -11 -13 -14 -7 -2 -9 1 -5 8 12 18 0 12
-20 -11 -10 -12 -13 -18 -6 -14 21 13 13 -12 -10 -28 -12 -9 -19 -16 -14 -16
5 0 3 -7 -4 -15 -7 -8 -17 -15 -22 -15 -6 0 -5 7 2 15 22 26 4 16 -21 -12 -13
-15 -16 -21 -6 -14 10 8 17 9 17 3 0 -6 -8 -16 -17 -21 -10 -6 -14 -11 -9 -11
12 0 -35 -50 -47 -50 -5 0 -3 8 4 18 13 15 12 16 -3 4 -9 -7 -15 -22 -13 -32
2 -12 -7 -29 -26 -44 -16 -14 -29 -29 -29 -34 0 -6 -16 -24 -35 -41 -19 -17
-35 -34 -35 -39 0 -5 -15 -23 -32 -41 -33 -32 -44 -44 -140 -160 -73 -88 -101
-119 -92 -101 4 9 3 12 -2 7 -5 -5 -9 -12 -9 -16 0 -4 -27 -44 -60 -89 l-60
-82 -130 3 c-128 2 -131 1 -240 -37 l-109 -39 -28 33 c-15 18 -24 38 -21 43 3
6 2 7 -4 4 -9 -6 -107 95 -313 323 -57 63 -113 124 -124 135 -77 76 -461 511
-460 522 1 7 -2 11 -6 8 -9 -5 -124 118 -380 405 -96 107 -221 246 -279 309
-322 348 -425 461 -584 635 -20 21 -33 44 -31 51 3 7 1 16 -5 20 -7 4 -9 -1
-5 -12 6 -19 -18 5 -166 167 l-94 103 859 -6 c473 -4 1459 -9 2190 -12z m2681
-100 c3 -14 10 -25 15 -25 5 0 9 -6 9 -14 0 -8 7 -17 16 -20 8 -3 12 -10 9
-16 -3 -5 -1 -10 5 -10 6 0 8 -5 5 -11 -4 -6 1 -17 11 -25 11 -9 12 -12 4 -8
-8 4 -3 -5 13 -21 15 -15 27 -34 27 -41 0 -8 5 -14 10 -14 6 0 10 -7 10 -15 0
-8 5 -15 11 -15 5 0 7 -4 4 -10 -3 -5 -1 -10 5 -10 6 0 16 -13 21 -30 6 -16
14 -30 18 -30 4 0 13 -16 21 -35 8 -19 18 -35 22 -35 5 0 6 -4 3 -10 -3 -5 -1
-10 5 -10 6 0 16 -13 21 -30 6 -16 15 -30 20 -30 5 0 9 -5 9 -11 0 -6 7 -17
15 -25 8 -8 11 -22 8 -31 -4 -10 -2 -14 4 -10 6 4 19 -10 29 -31 10 -20 22
-38 27 -40 4 -2 7 -10 7 -18 0 -8 5 -14 10 -14 6 0 15 -12 21 -27 5 -14 23
-45 38 -69 22 -32 26 -45 17 -54 -8 -8 -7 -10 6 -5 19 7 43 -28 34 -50 -3 -8
0 -17 6 -21 7 -5 8 -2 3 7 -15 25 3 4 30 -35 21 -31 24 -41 13 -48 -10 -8 -9
-9 4 -5 19 7 62 -57 54 -79 -3 -9 1 -11 12 -7 9 3 14 3 10 -2 -4 -4 -1 -13 8
-19 8 -6 16 -21 17 -33 0 -12 5 -19 11 -16 5 4 7 -1 3 -11 -4 -9 -3 -15 2 -12
11 7 35 -40 27 -53 -4 -6 -1 -9 6 -6 9 4 22 -9 36 -33 l22 -39 -83 -63 c-98
-76 -311 -287 -390 -387 -108 -137 -230 -327 -293 -457 -64 -132 -140 -342
-165 -450 l-13 -58 -163 3 c-103 3 -162 8 -159 14 2 6 -50 10 -143 11 -238 1
-1010 27 -1006 33 2 3 -38 4 -88 3 -136 -6 -517 9 -517 19 0 5 7 9 16 9 8 0
13 4 10 9 -7 11 72 111 86 108 6 -1 12 7 14 17 1 11 20 36 41 55 31 30 33 31
13 6 l-25 -30 27 24 c15 13 24 29 22 35 -3 7 4 21 16 31 11 10 20 15 20 10 0
-4 6 -2 14 5 8 6 13 17 10 23 -2 7 22 40 53 75 32 34 59 68 61 75 4 17 42 48
52 42 8 -5 25 24 21 39 -3 13 31 47 43 43 6 -3 20 7 30 21 11 14 14 22 8 18
-22 -13 -12 13 10 28 12 9 19 16 14 16 -5 0 -3 7 4 15 7 8 17 15 22 15 6 0 5
-7 -2 -15 -20 -24 -5 -18 16 7 10 12 13 18 7 14 -22 -13 -14 8 18 47 30 36 65
55 38 20 -13 -16 -12 -17 3 -5 9 8 14 20 11 28 -3 9 6 28 23 45 27 29 52 40
38 17 -4 -6 -3 -8 4 -4 6 3 9 15 7 26 -2 12 7 28 26 44 16 14 29 29 29 34 0 6
14 22 30 35 17 14 30 30 30 35 0 6 14 22 30 35 17 14 30 29 30 33 0 14 134
159 144 156 6 -2 8 0 4 3 -9 9 60 95 74 92 6 -1 12 6 13 16 3 18 43 69 95 122
17 17 30 35 30 41 0 14 68 73 75 66 3 -4 3 0 0 8 -3 10 9 29 32 50 20 19 33
28 28 20 -8 -13 -7 -13 8 -1 18 15 23 26 7 16 -20 -12 -9 9 26 51 19 24 40 44
46 44 6 0 3 -10 -8 -22 l-19 -23 22 19 c13 10 21 22 18 26 -7 11 17 39 45 53
14 7 25 19 25 27 0 17 24 48 71 95 17 17 35 41 38 53 4 12 20 29 36 39 16 9
27 20 24 25 -3 4 0 8 7 8 7 0 9 3 6 7 -10 9 33 53 51 53 9 0 12 3 9 7 -4 3 1
12 11 20 11 10 12 12 2 8 -8 -4 -3 5 12 18 15 14 25 27 22 29 -2 3 8 15 23 29
l28 24 -20 -25 -20 -25 22 19 c13 10 20 22 17 27 -2 5 12 25 32 46 20 21 29
27 18 13 l-19 -25 22 18 c12 11 20 24 17 31 -3 7 7 23 21 36 14 13 25 20 25
16 0 -5 6 -3 14 4 8 6 13 17 10 24 -3 7 9 25 25 39 17 14 31 30 31 35 0 6 12
21 28 34 15 13 28 31 30 39 3 15 39 49 53 49 5 0 11 -11 15 -25z m2426 -1241
c231 -30 468 -105 643 -205 467 -265 756 -589 939 -1049 146 -369 177 -829 81
-1191 -26 -98 -27 -101 -40 -134 -131 -340 -208 -480 -370 -674 -192 -230
-419 -407 -658 -513 -321 -143 -564 -198 -872 -198 -587 0 -1098 238 -1503
700 -134 153 -279 392 -347 573 l-26 69 59 -4 c38 -2 58 1 56 7 -5 12 703 62
730 52 11 -5 15 -3 10 5 -5 8 1 9 21 4 32 -8 286 4 281 13 -2 3 23 4 56 3 34
-2 70 1 82 6 26 13 535 45 633 41 40 -2 69 0 66 5 -3 5 8 7 25 4 19 -3 29 0
25 5 -4 6 2 8 15 5 16 -4 19 -2 15 10 -4 10 -2 13 5 8 7 -4 12 -2 12 3 0 6 5
11 12 11 6 0 26 12 45 26 19 14 40 23 48 20 8 -3 17 0 21 6 4 7 3 8 -4 4 -21
-12 -13 12 8 27 11 8 17 16 14 20 -3 3 6 13 20 22 14 10 24 21 21 25 -3 5 3
13 12 19 10 6 14 11 10 11 -5 0 -2 6 5 13 7 8 22 46 32 85 10 40 22 69 27 66
5 -3 9 51 9 120 0 86 -4 126 -11 126 -6 0 -9 9 -6 20 3 11 2 20 -2 20 -4 0
-15 23 -25 50 -10 28 -22 50 -27 50 -5 0 -9 5 -9 11 0 13 -138 149 -151 149
-5 0 -33 12 -62 26 -35 18 -76 29 -125 33 -40 3 -71 8 -70 11 2 3 -7 16 -20
30 -13 14 -20 31 -17 41 3 10 0 21 -6 25 -8 5 -10 2 -5 -7 4 -8 0 -5 -8 5 -9
11 -14 28 -11 37 3 10 0 21 -6 25 -9 5 -10 2 -6 -9 11 -29 -2 -18 -28 23 -14
23 -23 45 -20 50 3 6 -1 20 -9 32 -9 12 -16 19 -16 15 0 -20 -42 35 -44 56 0
14 -4 23 -7 21 -11 -6 -41 46 -35 61 3 10 0 12 -12 8 -9 -3 -14 -3 -10 1 3 4
-3 17 -14 28 -12 12 -18 28 -15 39 3 10 0 22 -5 26 -7 3 -8 1 -4 -5 4 -7 5
-12 3 -12 -12 0 -88 132 -84 145 4 8 1 17 -5 21 -7 5 -8 2 -3 -6 6 -9 4 -11
-4 -6 -7 5 -10 14 -7 22 3 8 0 11 -10 7 -16 -6 -47 54 -37 72 4 5 3 7 -2 3
-11 -10 -48 51 -41 68 3 8 0 11 -9 8 -16 -6 -39 31 -31 51 3 8 -8 28 -24 44
-17 16 -30 34 -30 39 0 5 -7 13 -16 16 -8 3 -12 10 -9 16 3 5 1 10 -5 10 -6 0
-8 5 -5 10 3 6 1 10 -5 10 -7 0 -10 6 -7 13 6 16 -18 64 -29 57 -4 -3 -16 13
-27 35 -12 22 -26 43 -33 48 -7 4 -11 16 -9 27 3 13 0 18 -7 14 -7 -5 -9 -1
-5 9 4 10 2 16 -4 14 -6 -1 -21 16 -32 38 -12 22 -25 42 -30 44 -24 9 220 97
363 131 218 51 483 64 712 34z m-10105 -29 c144 -18 316 -60 445 -110 104 -40
120 -51 98 -65 -8 -5 -12 -10 -8 -10 13 0 -14 -60 -27 -60 -7 0 -12 -8 -11
-17 0 -10 -4 -17 -11 -16 -7 2 -10 -3 -7 -11 3 -7 -2 -20 -10 -29 -8 -8 -12
-17 -9 -21 4 -3 1 -6 -6 -6 -7 0 -9 -5 -5 -11 3 -6 -5 -21 -20 -34 -14 -12
-23 -25 -19 -29 3 -3 1 -6 -5 -6 -6 0 -9 -7 -5 -17 4 -11 3 -14 -5 -9 -8 4
-10 2 -6 -8 3 -8 -4 -24 -15 -35 -12 -12 -21 -22 -20 -23 3 -9 -26 -58 -34
-58 -6 0 -7 -3 -4 -7 4 -3 -1 -12 -11 -19 -14 -11 -14 -13 -2 -14 12 0 10 -4
-4 -15 -11 -8 -16 -15 -12 -15 4 0 0 -7 -8 -16 -9 -8 -16 -22 -16 -30 0 -8 -5
-14 -11 -14 -5 0 -7 -4 -4 -10 3 -5 1 -10 -5 -10 -6 0 -9 -4 -5 -9 3 -6 0 -13
-8 -18 -7 -4 -21 -27 -31 -50 -10 -23 -23 -40 -29 -36 -6 4 -8 -2 -5 -15 4
-13 1 -25 -7 -30 -8 -4 -23 -28 -34 -54 -11 -27 -25 -48 -31 -48 -5 0 -9 -3
-8 -7 3 -13 -64 -143 -74 -143 -5 0 -7 -4 -4 -9 4 -5 3 -11 -1 -13 -5 -1 -24
-34 -43 -73 -19 -38 -39 -73 -45 -77 -6 -5 -6 -8 0 -8 6 0 6 -3 -1 -8 -6 -4
-26 -38 -44 -75 -21 -43 -38 -66 -46 -63 -9 3 -11 0 -7 -11 4 -10 2 -14 -4
-10 -5 3 -9 -4 -9 -16 1 -20 -5 -22 -74 -28 -41 -3 -92 -11 -113 -18 -115 -39
-211 -126 -265 -240 -31 -63 -37 -88 -40 -161 -10 -196 84 -357 255 -442 65
-32 72 -33 183 -33 111 0 118 1 185 34 75 37 175 128 213 194 57 100 69 279
25 378 l-21 46 27 60 c24 55 61 106 61 86 1 -11 29 39 29 52 1 6 -4 3 -9 -5
-15 -24 -12 -2 5 30 10 19 20 27 30 24 9 -4 16 0 16 7 1 8 3 21 4 29 1 8 3 21
4 28 0 7 6 10 11 7 6 -3 11 0 11 7 1 7 3 20 3 28 3 29 30 71 42 66 8 -3 11 0
8 9 -7 17 14 57 26 50 6 -4 7 1 3 11 -5 13 -3 15 7 9 9 -5 11 -4 6 4 -11 17
14 73 30 67 8 -3 11 0 8 8 -7 17 30 78 41 68 5 -4 5 -2 1 5 -11 19 21 86 38
80 11 -4 13 -1 9 10 -4 11 -2 14 5 9 8 -4 10 -2 6 8 -9 23 66 152 80 138 4 -3
4 2 0 12 -5 13 -4 17 3 13 7 -5 9 0 6 12 -3 11 3 27 15 39 11 11 17 24 14 28
-4 4 1 4 10 1 12 -4 15 -2 12 8 -5 13 21 75 32 75 3 0 2 -5 -2 -12 -4 -6 -3
-8 4 -5 5 4 8 15 5 26 -2 10 2 25 11 33 8 9 12 19 8 23 -4 5 1 5 10 2 13 -4
15 -2 11 10 -5 12 -3 14 7 8 9 -6 11 -4 5 4 -9 16 15 62 28 54 6 -4 8 0 4 10
-4 10 -2 17 4 17 6 0 9 7 5 15 -3 8 -1 15 5 15 6 0 7 5 3 12 -5 7 -2 9 8 5 18
-6 44 35 34 52 -4 6 -2 11 4 11 6 0 8 5 5 10 -3 6 -1 10 5 10 6 0 8 5 4 12
-24 39 203 -161 252 -222 16 -19 52 -61 81 -93 62 -68 180 -245 245 -367 208
-387 279 -877 192 -1315 -9 -44 -21 -85 -26 -92 -5 -7 -7 -17 -3 -23 3 -5 2
-10 -3 -10 -5 0 -14 -22 -20 -50 -17 -72 -97 -273 -145 -360 -133 -245 -250
-389 -476 -587 -287 -251 -674 -419 -1071 -464 -130 -15 -423 -6 -541 15 -122
23 -401 116 -527 176 -399 191 -722 510 -927 917 -59 119 -141 352 -149 425
-3 24 -14 104 -25 178 -127 830 309 1667 1067 2053 153 78 348 148 449 161 15
2 75 11 133 19 154 24 152 24 310 26 80 0 200 -6 267 -14z m8682 -359 c8 -13
10 -30 6 -37 -6 -8 -4 -10 5 -4 10 6 12 4 7 -8 -3 -9 -1 -19 5 -23 7 -5 8 -2
4 7 -4 8 0 5 8 -5 9 -11 16 -25 16 -32 0 -6 7 -15 16 -18 9 -4 14 -13 10 -21
-3 -8 0 -14 7 -12 7 1 12 -8 11 -20 0 -12 4 -19 9 -16 6 4 8 0 4 -10 -3 -9 -1
-19 5 -23 7 -4 8 -3 4 4 -4 7 -4 12 -1 12 3 0 16 -21 27 -47 11 -27 29 -59 39
-72 10 -13 16 -27 14 -31 -3 -5 0 -12 6 -16 8 -5 10 -2 5 7 -4 8 0 5 8 -5 9
-11 16 -26 16 -33 0 -7 5 -13 10 -13 6 0 10 -9 10 -20 0 -11 5 -20 10 -20 6 0
10 -6 10 -13 0 -8 9 -22 19 -31 11 -10 22 -28 25 -42 4 -13 11 -24 16 -24 6 0
10 -9 10 -19 0 -10 7 -22 16 -25 9 -4 14 -9 11 -12 -3 -4 3 -16 14 -27 11 -12
22 -32 25 -44 4 -13 10 -23 15 -23 5 0 9 -7 9 -15 0 -8 5 -15 10 -15 6 0 15
-12 21 -27 5 -15 27 -52 48 -83 50 -75 91 -156 83 -165 -4 -4 -1 -5 6 -3 7 2
24 -16 39 -39 l25 -43 -128 0 c-71 0 -124 4 -117 8 6 4 -55 7 -135 8 -253 2
-1030 29 -1037 36 -12 12 72 245 132 363 129 259 317 489 552 677 25 20 49 37
52 37 3 1 11 -10 18 -23z"/>
</g>
</svg>
